# File generated by ImageToStl.com - Free Image and 3D model conversion tools

o obj1
v 1.48778 0.483409 9.87688
v 1.48778 -0.483409 9.87688
v 1.56434 0 9.87688
v 1.26558 0.919499 9.87688
v 1.26558 -0.919499 9.87688
v 0.919499 1.26558 9.87688
v 0.919499 -1.26558 9.87688
v 0.483409 1.48778 9.87688
v 0.483409 -1.48778 9.87688
v 0 1.56434 9.87688
v -0 -1.56434 9.87688
v -0.483409 1.48778 9.87688
v -0.483409 -1.48778 9.87688
v -0.919499 1.26558 9.87688
v -0.919499 -1.26558 9.87688
v -1.26558 0.919499 9.87688
v -1.26558 -0.919499 9.87688
v -1.48778 0.483409 9.87688
v -1.48778 -0.483409 9.87688
v -1.56434 0 9.87688
v 4.53991 0 8.91007
v 4.31771 1.40291 8.91007
v 3.67286 2.66849 8.91007
v 2.66849 3.67286 8.91007
v 1.40291 4.31771 8.91007
v 0 4.53991 8.91007
v -1.40291 4.31771 8.91007
v -2.66849 3.67286 8.91007
v -3.67286 2.66849 8.91007
v -4.31771 1.40291 8.91007
v -4.53991 0 8.91007
v -4.31771 -1.40291 8.91007
v -3.67286 -2.66849 8.91007
v -2.66849 -3.67286 8.91007
v -1.40291 -4.31771 8.91007
v -0 -4.53991 8.91007
v 1.40291 -4.31771 8.91007
v 2.66849 -3.67286 8.91007
v 3.67286 -2.66849 8.91007
v 4.31771 -1.40291 8.91007
v 7.07107 0 7.07107
v 6.72499 2.18508 7.07107
v 5.72061 4.15627 7.07107
v 4.15627 5.72061 7.07107
v 2.18508 6.72499 7.07107
v 0 7.07107 7.07107
v -2.18508 6.72499 7.07107
v -4.15627 5.72061 7.07107
v -5.72061 4.15627 7.07107
v -6.72499 2.18508 7.07107
v -7.07107 0 7.07107
v -6.72499 -2.18508 7.07107
v -5.72061 -4.15627 7.07107
v -4.15627 -5.72061 7.07107
v -2.18508 -6.72499 7.07107
v -0 -7.07107 7.07107
v 2.18508 -6.72499 7.07107
v 4.15627 -5.72061 7.07107
v 5.72061 -4.15627 7.07107
v 6.72499 -2.18508 7.07107
v 8.91007 0 4.53991
v 8.47398 2.75336 4.53991
v 7.20839 5.23721 4.53991
v 5.23721 7.20839 4.53991
v 2.75336 8.47398 4.53991
v 0 8.91007 4.53991
v -2.75336 8.47398 4.53991
v -5.23721 7.20839 4.53991
v -7.20839 5.23721 4.53991
v -8.47398 2.75336 4.53991
v -8.91007 0 4.53991
v -8.47398 -2.75336 4.53991
v -7.20839 -5.23721 4.53991
v -5.23721 -7.20839 4.53991
v -2.75336 -8.47398 4.53991
v -0 -8.91007 4.53991
v 2.75336 -8.47398 4.53991
v 5.23721 -7.20839 4.53991
v 7.20839 -5.23721 4.53991
v 8.47398 -2.75336 4.53991
v 9.87688 0 1.56434
v 9.39347 3.05212 1.56434
v 7.99057 5.80549 1.56434
v 5.80549 7.99057 1.56434
v 3.05212 9.39347 1.56434
v 0 9.87688 1.56434
v -3.05212 9.39347 1.56434
v -5.80549 7.99057 1.56434
v -7.99057 5.80549 1.56434
v -9.39347 3.05212 1.56434
v -9.87688 0 1.56434
v -9.39347 -3.05212 1.56434
v -7.99057 -5.80549 1.56434
v -5.80549 -7.99057 1.56434
v -3.05212 -9.39347 1.56434
v -0 -9.87688 1.56434
v 3.05212 -9.39347 1.56434
v 5.80549 -7.99057 1.56434
v 7.99057 -5.80549 1.56434
v 9.39347 -3.05212 1.56434
v 9.87688 0 -1.56434
v 9.39347 3.05212 -1.56434
v 7.99057 5.80549 -1.56434
v 5.80549 7.99057 -1.56434
v 3.05212 9.39347 -1.56434
v 0 9.87688 -1.56434
v -3.05212 9.39347 -1.56434
v -5.80549 7.99057 -1.56434
v -7.99057 5.80549 -1.56434
v -9.39347 3.05212 -1.56434
v -9.87688 0 -1.56434
v -9.39347 -3.05212 -1.56434
v -7.99057 -5.80549 -1.56434
v -5.80549 -7.99057 -1.56434
v -3.05212 -9.39347 -1.56434
v -0 -9.87688 -1.56434
v 3.05212 -9.39347 -1.56434
v 5.80549 -7.99057 -1.56434
v 7.99057 -5.80549 -1.56434
v 9.39347 -3.05212 -1.56434
v 8.91007 0 -4.53991
v 8.47398 2.75336 -4.53991
v 7.20839 5.23721 -4.53991
v 5.23721 7.20839 -4.53991
v 2.75336 8.47398 -4.53991
v 0 8.91007 -4.53991
v -2.75336 8.47398 -4.53991
v -5.23721 7.20839 -4.53991
v -7.20839 5.23721 -4.53991
v -8.47398 2.75336 -4.53991
v -8.91007 0 -4.53991
v -8.47398 -2.75336 -4.53991
v -7.20839 -5.23721 -4.53991
v -5.23721 -7.20839 -4.53991
v -2.75336 -8.47398 -4.53991
v -0 -8.91007 -4.53991
v 2.75336 -8.47398 -4.53991
v 5.23721 -7.20839 -4.53991
v 7.20839 -5.23721 -4.53991
v 8.47398 -2.75336 -4.53991
v 7.07107 0 -7.07107
v 6.72499 2.18508 -7.07107
v 5.72061 4.15627 -7.07107
v 4.15627 5.72061 -7.07107
v 2.18508 6.72499 -7.07107
v 0 7.07107 -7.07107
v -2.18508 6.72499 -7.07107
v -4.15627 5.72061 -7.07107
v -5.72061 4.15627 -7.07107
v -6.72499 2.18508 -7.07107
v -7.07107 0 -7.07107
v -6.72499 -2.18508 -7.07107
v -5.72061 -4.15627 -7.07107
v -4.15627 -5.72061 -7.07107
v -2.18508 -6.72499 -7.07107
v -0 -7.07107 -7.07107
v 2.18508 -6.72499 -7.07107
v 4.15627 -5.72061 -7.07107
v 5.72061 -4.15627 -7.07107
v 6.72499 -2.18508 -7.07107
v 4.53991 0 -8.91007
v 4.31771 1.40291 -8.91007
v 3.67286 2.66849 -8.91007
v 2.66849 3.67286 -8.91007
v 1.40291 4.31771 -8.91007
v 0 4.53991 -8.91007
v -1.40291 4.31771 -8.91007
v -2.66849 3.67286 -8.91007
v -3.67286 2.66849 -8.91007
v -4.31771 1.40291 -8.91007
v -4.53991 0 -8.91007
v -4.31771 -1.40291 -8.91007
v -3.67286 -2.66849 -8.91007
v -2.66849 -3.67286 -8.91007
v -1.40291 -4.31771 -8.91007
v -0 -4.53991 -8.91007
v 1.40291 -4.31771 -8.91007
v 2.66849 -3.67286 -8.91007
v 3.67286 -2.66849 -8.91007
v 4.31771 -1.40291 -8.91007
v 1.56434 0 -9.87688
v 1.48778 0.483409 -9.87688
v 1.26558 0.919499 -9.87688
v 0.919499 1.26558 -9.87688
v 0.483409 1.48778 -9.87688
v 0 1.56434 -9.87688
v -0.483409 1.48778 -9.87688
v -0.919499 1.26558 -9.87688
v -1.26558 0.919499 -9.87688
v -1.48778 0.483409 -9.87688
v -1.56434 0 -9.87688
v -1.48778 -0.483409 -9.87688
v -1.26558 -0.919499 -9.87688
v -0.919499 -1.26558 -9.87688
v -0.483409 -1.48778 -9.87688
v -0 -1.56434 -9.87688
v 0.483409 -1.48778 -9.87688
v 0.919499 -1.26558 -9.87688
v 1.26558 -0.919499 -9.87688
v 1.48778 -0.483409 -9.87688
vn 0 0 1
vn 0.30865 0.04888 0.94992
vn 0.30865 0.04888 0.94992
vn 0.27844 0.14187 0.94992
vn 0.22097 0.22097 0.94992
vn 0.14187 0.27844 0.94992
vn 0.04888 0.30865 0.94992
vn 0.04888 0.30865 0.94992
vn -0.04888 0.30865 0.94992
vn -0.04888 0.30865 0.94992
vn -0.14187 0.27844 0.94992
vn -0.22097 0.22097 0.94992
vn -0.27844 0.14187 0.94992
vn -0.30865 0.04888 0.94992
vn -0.30865 0.04888 0.94992
vn -0.30865 -0.04888 0.94992
vn -0.30865 -0.04888 0.94992
vn -0.27844 -0.14187 0.94992
vn -0.22097 -0.22097 0.94992
vn -0.14187 -0.27844 0.94992
vn -0.04888 -0.30865 0.94992
vn -0.04888 -0.30865 0.94992
vn 0.04888 -0.30865 0.94992
vn 0.04888 -0.30865 0.94992
vn 0.14187 -0.27844 0.94992
vn 0.22097 -0.22097 0.94992
vn 0.27844 -0.14187 0.94992
vn 0.30865 -0.04888 0.94992
vn 0.30865 -0.04888 0.94992
vn 0.58526 0.0927 0.80553
vn 0.58526 0.0927 0.80553
vn 0.52797 0.26901 0.80553
vn 0.419 0.419 0.80553
vn 0.26901 0.52797 0.80553
vn 0.0927 0.58526 0.80553
vn 0.0927 0.58526 0.80553
vn -0.0927 0.58526 0.80553
vn -0.0927 0.58526 0.80553
vn -0.26901 0.52797 0.80553
vn -0.419 0.419 0.80553
vn -0.52797 0.26901 0.80553
vn -0.58526 0.0927 0.80553
vn -0.58526 0.0927 0.80553
vn -0.58526 -0.0927 0.80553
vn -0.58526 -0.0927 0.80553
vn -0.52797 -0.26901 0.80553
vn -0.419 -0.419 0.80553
vn -0.26901 -0.52797 0.80553
vn -0.0927 -0.58526 0.80553
vn -0.0927 -0.58526 0.80553
vn 0.0927 -0.58526 0.80553
vn 0.0927 -0.58526 0.80553
vn 0.26901 -0.52797 0.80553
vn 0.419 -0.419 0.80553
vn 0.52797 -0.26901 0.80553
vn 0.58526 -0.0927 0.80553
vn 0.58526 -0.0927 0.80553
vn 0.80246 0.1271 0.58302
vn 0.80246 0.1271 0.58302
vn 0.72391 0.36885 0.58302
vn 0.72391 0.36885 0.58302
vn 0.5745 0.5745 0.58302
vn 0.36885 0.72391 0.58302
vn 0.1271 0.80246 0.58302
vn 0.1271 0.80246 0.58302
vn -0.1271 0.80246 0.58302
vn -0.1271 0.80246 0.58302
vn -0.36885 0.72391 0.58302
vn -0.36885 0.72391 0.58302
vn -0.5745 0.5745 0.58302
vn -0.72391 0.36885 0.58302
vn -0.80246 0.1271 0.58302
vn -0.80246 0.1271 0.58302
vn -0.80246 -0.1271 0.58302
vn -0.80246 -0.1271 0.58302
vn -0.72391 -0.36885 0.58302
vn -0.72391 -0.36885 0.58302
vn -0.5745 -0.5745 0.58302
vn -0.36885 -0.72391 0.58302
vn -0.1271 -0.80246 0.58302
vn -0.1271 -0.80246 0.58302
vn 0.1271 -0.80246 0.58302
vn 0.1271 -0.80246 0.58302
vn 0.36885 -0.72391 0.58302
vn 0.36885 -0.72391 0.58302
vn 0.5745 -0.5745 0.58302
vn 0.72391 -0.36885 0.58302
vn 0.80246 -0.1271 0.58302
vn 0.80246 -0.1271 0.58302
vn 0.94045 0.14895 0.30557
vn 0.84839 0.43228 0.30557
vn 0.67329 0.67329 0.30557
vn 0.43228 0.84839 0.30557
vn 0.14895 0.94045 0.30557
vn -0.14895 0.94045 0.30557
vn -0.43228 0.84839 0.30557
vn -0.67329 0.67329 0.30557
vn -0.84839 0.43228 0.30557
vn -0.94045 0.14895 0.30557
vn -0.94045 -0.14895 0.30557
vn -0.84839 -0.43228 0.30557
vn -0.67329 -0.67329 0.30557
vn -0.43228 -0.84839 0.30557
vn -0.14895 -0.94045 0.30557
vn 0.14895 -0.94045 0.30557
vn 0.43228 -0.84839 0.30557
vn 0.67329 -0.67329 0.30557
vn 0.84839 -0.43228 0.30557
vn 0.94045 -0.14895 0.30557
vn 0.98769 0.15643 -0
vn 0.89101 0.45399 -0
vn 0.70711 0.70711 -0
vn 0.45399 0.89101 -0
vn 0.15643 0.98769 -0
vn -0.15643 0.98769 0
vn -0.45399 0.89101 0
vn -0.70711 0.70711 0
vn -0.89101 0.45399 0
vn -0.98769 0.15643 0
vn -0.98769 -0.15643 0
vn -0.89101 -0.45399 0
vn -0.70711 -0.70711 0
vn -0.45399 -0.89101 0
vn -0.15643 -0.98769 0
vn 0.15643 -0.98769 0
vn 0.45399 -0.89101 0
vn 0.70711 -0.70711 0
vn 0.89101 -0.45399 0
vn 0.98769 -0.15643 0
vn 0.94045 0.14895 -0.30557
vn 0.84839 0.43228 -0.30557
vn 0.67329 0.67329 -0.30557
vn 0.43228 0.84839 -0.30557
vn 0.14895 0.94045 -0.30557
vn -0.14895 0.94045 -0.30557
vn -0.43228 0.84839 -0.30557
vn -0.67329 0.67329 -0.30557
vn -0.84839 0.43228 -0.30557
vn -0.94045 0.14895 -0.30557
vn -0.94045 -0.14895 -0.30557
vn -0.84839 -0.43228 -0.30557
vn -0.67329 -0.67329 -0.30557
vn -0.43228 -0.84839 -0.30557
vn -0.14895 -0.94045 -0.30557
vn 0.14895 -0.94045 -0.30557
vn 0.43228 -0.84839 -0.30557
vn 0.67329 -0.67329 -0.30557
vn 0.84839 -0.43228 -0.30557
vn 0.94045 -0.14895 -0.30557
vn 0.80246 0.1271 -0.58302
vn 0.80246 0.1271 -0.58302
vn 0.72391 0.36885 -0.58302
vn 0.5745 0.5745 -0.58302
vn 0.36885 0.72391 -0.58302
vn 0.36885 0.72391 -0.58302
vn 0.1271 0.80246 -0.58302
vn 0.1271 0.80246 -0.58302
vn -0.1271 0.80246 -0.58302
vn -0.1271 0.80246 -0.58302
vn -0.36885 0.72391 -0.58302
vn -0.5745 0.5745 -0.58302
vn -0.72391 0.36885 -0.58302
vn -0.72391 0.36885 -0.58302
vn -0.80246 0.1271 -0.58302
vn -0.80246 0.1271 -0.58302
vn -0.80246 -0.1271 -0.58302
vn -0.80246 -0.1271 -0.58302
vn -0.72391 -0.36885 -0.58302
vn -0.5745 -0.5745 -0.58302
vn -0.36885 -0.72391 -0.58302
vn -0.36885 -0.72391 -0.58302
vn -0.1271 -0.80246 -0.58302
vn -0.1271 -0.80246 -0.58302
vn 0.1271 -0.80246 -0.58302
vn 0.1271 -0.80246 -0.58302
vn 0.36885 -0.72391 -0.58302
vn 0.5745 -0.5745 -0.58302
vn 0.72391 -0.36885 -0.58302
vn 0.72391 -0.36885 -0.58302
vn 0.80246 -0.1271 -0.58302
vn 0.80246 -0.1271 -0.58302
vn 0.58526 0.0927 -0.80553
vn 0.58526 0.0927 -0.80553
vn 0.52797 0.26901 -0.80553
vn 0.419 0.419 -0.80553
vn 0.26901 0.52797 -0.80553
vn 0.0927 0.58526 -0.80553
vn 0.0927 0.58526 -0.80553
vn -0.0927 0.58526 -0.80553
vn -0.0927 0.58526 -0.80553
vn -0.26901 0.52797 -0.80553
vn -0.419 0.419 -0.80553
vn -0.52797 0.26901 -0.80553
vn -0.58526 0.0927 -0.80553
vn -0.58526 0.0927 -0.80553
vn -0.58526 -0.0927 -0.80553
vn -0.58526 -0.0927 -0.80553
vn -0.52797 -0.26901 -0.80553
vn -0.419 -0.419 -0.80553
vn -0.26901 -0.52797 -0.80553
vn -0.0927 -0.58526 -0.80553
vn -0.0927 -0.58526 -0.80553
vn 0.0927 -0.58526 -0.80553
vn 0.0927 -0.58526 -0.80553
vn 0.26901 -0.52797 -0.80553
vn 0.419 -0.419 -0.80553
vn 0.52797 -0.26901 -0.80553
vn 0.58526 -0.0927 -0.80553
vn 0.58526 -0.0927 -0.80553
vn 0.30865 0.04888 -0.94992
vn 0.30865 0.04888 -0.94992
vn 0.27844 0.14187 -0.94992
vn 0.22097 0.22097 -0.94992
vn 0.14187 0.27844 -0.94992
vn 0.04888 0.30865 -0.94992
vn 0.04888 0.30865 -0.94992
vn -0.04888 0.30865 -0.94992
vn -0.04888 0.30865 -0.94992
vn -0.14187 0.27844 -0.94992
vn -0.22097 0.22097 -0.94992
vn -0.27844 0.14187 -0.94992
vn -0.30865 0.04888 -0.94992
vn -0.30865 0.04888 -0.94992
vn -0.30865 -0.04888 -0.94992
vn -0.30865 -0.04888 -0.94992
vn -0.27844 -0.14187 -0.94992
vn -0.22097 -0.22097 -0.94992
vn -0.14187 -0.27844 -0.94992
vn -0.04888 -0.30865 -0.94992
vn -0.04888 -0.30865 -0.94992
vn 0.04888 -0.30865 -0.94992
vn 0.04888 -0.30865 -0.94992
vn 0.14187 -0.27844 -0.94992
vn 0.22097 -0.22097 -0.94992
vn 0.27844 -0.14187 -0.94992
vn 0.30865 -0.04888 -0.94992
vn 0.30865 -0.04888 -0.94992
vn 0 0 -1
f 1//1 2//1 3//1
f 4//1 2//1 1//1
f 4//1 5//1 2//1
f 6//1 5//1 4//1
f 6//1 7//1 5//1
f 8//1 7//1 6//1
f 8//1 9//1 7//1
f 10//1 9//1 8//1
f 10//1 11//1 9//1
f 12//1 11//1 10//1
f 12//1 13//1 11//1
f 14//1 13//1 12//1
f 14//1 15//1 13//1
f 16//1 15//1 14//1
f 16//1 17//1 15//1
f 18//1 17//1 16//1
f 18//1 19//1 17//1
f 19//1 18//1 20//1
f 21//2 22//2 3//2
f 22//3 1//3 3//3
f 22//4 23//4 1//4
f 23//4 4//4 1//4
f 23//5 24//5 4//5
f 24//5 6//5 4//5
f 24//6 25//6 6//6
f 25//6 8//6 6//6
f 25//7 26//7 8//7
f 26//8 10//8 8//8
f 26//9 27//9 10//9
f 27//10 12//10 10//10
f 27//11 28//11 12//11
f 28//11 14//11 12//11
f 28//12 29//12 14//12
f 29//12 16//12 14//12
f 29//13 30//13 16//13
f 30//13 18//13 16//13
f 30//14 31//14 18//14
f 31//15 20//15 18//15
f 31//16 32//16 20//16
f 32//17 19//17 20//17
f 32//18 33//18 19//18
f 33//18 17//18 19//18
f 33//19 34//19 17//19
f 34//19 15//19 17//19
f 34//20 35//20 15//20
f 35//20 13//20 15//20
f 35//21 36//21 13//21
f 36//22 11//22 13//22
f 36//23 37//23 11//23
f 37//24 9//24 11//24
f 37//25 38//25 9//25
f 38//25 7//25 9//25
f 38//26 39//26 7//26
f 39//26 5//26 7//26
f 39//27 40//27 5//27
f 40//27 2//27 5//27
f 40//28 21//28 2//28
f 21//29 3//29 2//29
f 41//30 42//30 21//30
f 42//31 22//31 21//31
f 42//32 43//32 22//32
f 43//32 23//32 22//32
f 43//33 44//33 23//33
f 44//33 24//33 23//33
f 44//34 45//34 24//34
f 45//34 25//34 24//34
f 45//35 46//35 25//35
f 46//36 26//36 25//36
f 46//37 47//37 26//37
f 47//38 27//38 26//38
f 47//39 48//39 27//39
f 48//39 28//39 27//39
f 48//40 49//40 28//40
f 49//40 29//40 28//40
f 49//41 50//41 29//41
f 50//41 30//41 29//41
f 50//42 51//42 30//42
f 51//43 31//43 30//43
f 51//44 52//44 31//44
f 52//45 32//45 31//45
f 52//46 53//46 32//46
f 53//46 33//46 32//46
f 53//47 54//47 33//47
f 54//47 34//47 33//47
f 54//48 55//48 34//48
f 55//48 35//48 34//48
f 55//49 56//49 35//49
f 56//50 36//50 35//50
f 56//51 57//51 36//51
f 57//52 37//52 36//52
f 57//53 58//53 37//53
f 58//53 38//53 37//53
f 58//54 59//54 38//54
f 59//54 39//54 38//54
f 59//55 60//55 39//55
f 60//55 40//55 39//55
f 60//56 41//56 40//56
f 41//57 21//57 40//57
f 61//58 62//58 41//58
f 62//59 42//59 41//59
f 62//60 63//60 42//60
f 63//61 43//61 42//61
f 63//62 64//62 43//62
f 64//62 44//62 43//62
f 64//63 65//63 44//63
f 65//63 45//63 44//63
f 65//64 66//64 45//64
f 66//65 46//65 45//65
f 66//66 67//66 46//66
f 67//67 47//67 46//67
f 67//68 68//68 47//68
f 68//69 48//69 47//69
f 68//70 69//70 48//70
f 69//70 49//70 48//70
f 69//71 70//71 49//71
f 70//71 50//71 49//71
f 70//72 71//72 50//72
f 71//73 51//73 50//73
f 71//74 72//74 51//74
f 72//75 52//75 51//75
f 72//76 73//76 52//76
f 73//77 53//77 52//77
f 73//78 74//78 53//78
f 74//78 54//78 53//78
f 74//79 75//79 54//79
f 75//79 55//79 54//79
f 75//80 76//80 55//80
f 76//81 56//81 55//81
f 76//82 77//82 56//82
f 77//83 57//83 56//83
f 77//84 78//84 57//84
f 78//85 58//85 57//85
f 78//86 79//86 58//86
f 79//86 59//86 58//86
f 79//87 80//87 59//87
f 80//87 60//87 59//87
f 80//88 61//88 60//88
f 61//89 41//89 60//89
f 81//90 82//90 61//90
f 82//90 62//90 61//90
f 82//91 83//91 62//91
f 83//91 63//91 62//91
f 83//92 84//92 63//92
f 84//92 64//92 63//92
f 84//93 85//93 64//93
f 85//93 65//93 64//93
f 85//94 86//94 65//94
f 86//94 66//94 65//94
f 86//95 87//95 66//95
f 87//95 67//95 66//95
f 87//96 88//96 67//96
f 88//96 68//96 67//96
f 88//97 89//97 68//97
f 89//97 69//97 68//97
f 89//98 90//98 69//98
f 90//98 70//98 69//98
f 90//99 91//99 70//99
f 91//99 71//99 70//99
f 91//100 92//100 71//100
f 92//100 72//100 71//100
f 92//101 93//101 72//101
f 93//101 73//101 72//101
f 93//102 94//102 73//102
f 94//102 74//102 73//102
f 94//103 95//103 74//103
f 95//103 75//103 74//103
f 95//104 96//104 75//104
f 96//104 76//104 75//104
f 96//105 97//105 76//105
f 97//105 77//105 76//105
f 97//106 98//106 77//106
f 98//106 78//106 77//106
f 98//107 99//107 78//107
f 99//107 79//107 78//107
f 99//108 100//108 79//108
f 100//108 80//108 79//108
f 100//109 81//109 80//109
f 81//109 61//109 80//109
f 101//110 102//110 81//110
f 102//110 82//110 81//110
f 102//111 103//111 82//111
f 103//111 83//111 82//111
f 103//112 104//112 83//112
f 104//112 84//112 83//112
f 104//113 105//113 84//113
f 105//113 85//113 84//113
f 105//114 106//114 85//114
f 106//114 86//114 85//114
f 106//115 107//115 86//115
f 107//115 87//115 86//115
f 107//116 108//116 87//116
f 108//116 88//116 87//116
f 108//117 109//117 88//117
f 109//117 89//117 88//117
f 109//118 110//118 89//118
f 110//118 90//118 89//118
f 110//119 111//119 90//119
f 111//119 91//119 90//119
f 111//120 112//120 91//120
f 112//120 92//120 91//120
f 112//121 113//121 92//121
f 113//121 93//121 92//121
f 113//122 114//122 93//122
f 114//122 94//122 93//122
f 114//123 115//123 94//123
f 115//123 95//123 94//123
f 115//124 116//124 95//124
f 116//124 96//124 95//124
f 116//125 117//125 96//125
f 117//125 97//125 96//125
f 117//126 118//126 97//126
f 118//126 98//126 97//126
f 118//127 119//127 98//127
f 119//127 99//127 98//127
f 119//128 120//128 99//128
f 120//128 100//128 99//128
f 120//129 101//129 100//129
f 101//129 81//129 100//129
f 121//130 122//130 101//130
f 122//130 102//130 101//130
f 122//131 123//131 102//131
f 123//131 103//131 102//131
f 123//132 124//132 103//132
f 124//132 104//132 103//132
f 124//133 125//133 104//133
f 125//133 105//133 104//133
f 125//134 126//134 105//134
f 126//134 106//134 105//134
f 126//135 127//135 106//135
f 127//135 107//135 106//135
f 127//136 128//136 107//136
f 128//136 108//136 107//136
f 128//137 129//137 108//137
f 129//137 109//137 108//137
f 129//138 130//138 109//138
f 130//138 110//138 109//138
f 130//139 131//139 110//139
f 131//139 111//139 110//139
f 131//140 132//140 111//140
f 132//140 112//140 111//140
f 132//141 133//141 112//141
f 133//141 113//141 112//141
f 133//142 134//142 113//142
f 134//142 114//142 113//142
f 134//143 135//143 114//143
f 135//143 115//143 114//143
f 135//144 136//144 115//144
f 136//144 116//144 115//144
f 136//145 137//145 116//145
f 137//145 117//145 116//145
f 137//146 138//146 117//146
f 138//146 118//146 117//146
f 138//147 139//147 118//147
f 139//147 119//147 118//147
f 139//148 140//148 119//148
f 140//148 120//148 119//148
f 140//149 121//149 120//149
f 121//149 101//149 120//149
f 141//150 142//150 121//150
f 142//151 122//151 121//151
f 142//152 143//152 122//152
f 143//152 123//152 122//152
f 143//153 144//153 123//153
f 144//153 124//153 123//153
f 144//154 145//154 124//154
f 145//155 125//155 124//155
f 145//156 146//156 125//156
f 146//157 126//157 125//157
f 146//158 147//158 126//158
f 147//159 127//159 126//159
f 147//160 148//160 127//160
f 148//160 128//160 127//160
f 148//161 149//161 128//161
f 149//161 129//161 128//161
f 149//162 150//162 129//162
f 150//163 130//163 129//163
f 150//164 151//164 130//164
f 151//165 131//165 130//165
f 151//166 152//166 131//166
f 152//167 132//167 131//167
f 152//168 153//168 132//168
f 153//168 133//168 132//168
f 153//169 154//169 133//169
f 154//169 134//169 133//169
f 154//170 155//170 134//170
f 155//171 135//171 134//171
f 155//172 156//172 135//172
f 156//173 136//173 135//173
f 156//174 157//174 136//174
f 157//175 137//175 136//175
f 157//176 158//176 137//176
f 158//176 138//176 137//176
f 158//177 159//177 138//177
f 159//177 139//177 138//177
f 159//178 160//178 139//178
f 160//179 140//179 139//179
f 160//180 141//180 140//180
f 141//181 121//181 140//181
f 161//182 162//182 141//182
f 162//183 142//183 141//183
f 162//184 163//184 142//184
f 163//184 143//184 142//184
f 163//185 164//185 143//185
f 164//185 144//185 143//185
f 164//186 165//186 144//186
f 165//186 145//186 144//186
f 165//187 166//187 145//187
f 166//188 146//188 145//188
f 166//189 167//189 146//189
f 167//190 147//190 146//190
f 167//191 168//191 147//191
f 168//191 148//191 147//191
f 168//192 169//192 148//192
f 169//192 149//192 148//192
f 169//193 170//193 149//193
f 170//193 150//193 149//193
f 170//194 171//194 150//194
f 171//195 151//195 150//195
f 171//196 172//196 151//196
f 172//197 152//197 151//197
f 172//198 173//198 152//198
f 173//198 153//198 152//198
f 173//199 174//199 153//199
f 174//199 154//199 153//199
f 174//200 175//200 154//200
f 175//200 155//200 154//200
f 175//201 176//201 155//201
f 176//202 156//202 155//202
f 176//203 177//203 156//203
f 177//204 157//204 156//204
f 177//205 178//205 157//205
f 178//205 158//205 157//205
f 178//206 179//206 158//206
f 179//206 159//206 158//206
f 179//207 180//207 159//207
f 180//207 160//207 159//207
f 180//208 161//208 160//208
f 161//209 141//209 160//209
f 181//210 182//210 161//210
f 182//211 162//211 161//211
f 182//212 183//212 162//212
f 183//212 163//212 162//212
f 183//213 184//213 163//213
f 184//213 164//213 163//213
f 184//214 185//214 164//214
f 185//214 165//214 164//214
f 185//215 186//215 165//215
f 186//216 166//216 165//216
f 186//217 187//217 166//217
f 187//218 167//218 166//218
f 187//219 188//219 167//219
f 188//219 168//219 167//219
f 188//220 189//220 168//220
f 189//220 169//220 168//220
f 189//221 190//221 169//221
f 190//221 170//221 169//221
f 190//222 191//222 170//222
f 191//223 171//223 170//223
f 191//224 192//224 171//224
f 192//225 172//225 171//225
f 192//226 193//226 172//226
f 193//226 173//226 172//226
f 193//227 194//227 173//227
f 194//227 174//227 173//227
f 194//228 195//228 174//228
f 195//228 175//228 174//228
f 195//229 196//229 175//229
f 196//230 176//230 175//230
f 196//231 197//231 176//231
f 197//232 177//232 176//232
f 197//233 198//233 177//233
f 198//233 178//233 177//233
f 198//234 199//234 178//234
f 199//234 179//234 178//234
f 199//235 200//235 179//235
f 200//235 180//235 179//235
f 200//236 181//236 180//236
f 181//237 161//237 180//237
f 200//238 182//238 181//238
f 199//238 182//238 200//238
f 199//238 183//238 182//238
f 198//238 183//238 199//238
f 198//238 184//238 183//238
f 197//238 184//238 198//238
f 197//238 185//238 184//238
f 197//238 186//238 185//238
f 196//238 186//238 197//238
f 195//238 186//238 196//238
f 195//238 187//238 186//238
f 194//238 187//238 195//238
f 194//238 188//238 187//238
f 193//238 188//238 194//238
f 193//238 189//238 188//238
f 192//238 189//238 193//238
f 192//238 190//238 189//238
f 190//238 192//238 191//238
# Vertices: 200, normals: 238, texture coordinates: 0, faces: 396

